<svg id="Layer_1_1_" enable-background="new 0 0 64 64" height="512" viewBox="0 0 64 64" width="512" xmlns="http://www.w3.org/2000/svg"><path d="m61 54v4c0 2.21-1.79 4-4 4h-50c1.1 0 2.1-.45 2.83-1.17.72-.73 1.17-1.73 1.17-2.83v-4z" fill="#fac7a4"/><path d="m53 54h-42v4c0 1.1-.45 2.1-1.17 2.83-.73.72-1.73 1.17-2.83 1.17-2.21 0-4-1.79-4-4v-56h50z" fill="#ffe5ca"/><path d="m37.86 15.93-5.95 5.56c-.57-.31-1.22-.49-1.91-.49-.7 0-1.35.18-1.92.49l-5.96-5.54c2.1-1.84 4.86-2.95 7.88-2.95 3.01 0 5.76 1.1 7.86 2.93z" fill="#ffe5ca"/><path d="m61 41.2-3.27 5.03-12.58-8.17 3.28-5.03z" fill="#ed6571"/><path d="m40.41 19.02c1.01 1.76 1.59 3.8 1.59 5.98 0 2.3-.65 4.45-1.76 6.28-2.12 3.43-5.91 5.72-10.24 5.72-6.63 0-12-5.37-12-12 0-2.17.57-4.2 1.57-5.95l6.43 5.97c.01 2.2 1.8 3.98 4 3.98 2.21 0 4-1.79 4-4z" fill="#ffe5ca"/><circle cx="30" cy="25" fill="#fac7a4" r="12"/><path d="m40.41 19.02-6.41 5.98c0-1.52-.84-2.83-2.09-3.51l5.95-5.56c.51.44.97.92 1.4 1.43.43.52.82 1.07 1.15 1.66z" fill="#ed6571"/><path d="m28.08 21.49c-1.24.68-2.08 2-2.08 3.51v.02l-6.43-5.97c.34-.59.72-1.15 1.15-1.67.43-.51.9-.99 1.4-1.43z" fill="#ed6571"/><path d="m45 10c1.1 0 2 .9 2 2s-.9 2-2 2c-.57 0-1.09-.25-1.46-.64-.34-.35-.54-.83-.54-1.36 0-1.1.9-2 2-2z" fill="#91cbd7"/><path d="m16 11c1.1 0 2 .9 2 2 0 .53-.2 1.01-.54 1.36-.37.39-.89.64-1.46.64-.34 0-.66-.08-.94-.24-.63-.33-1.06-1-1.06-1.76 0-1.1.9-2 2-2z" fill="#91cbd7"/><path d="m9.94 26.24c.63.33 1.06 1 1.06 1.76 0 1.1-.9 2-2 2s-2-.9-2-2 .9-2 2-2c.34 0 .66.08.94.24z" fill="#91cbd7"/><path d="m26 25c0-1.51.84-2.83 2.08-3.51.57-.31 1.22-.49 1.92-.49.69 0 1.34.18 1.91.49 1.25.68 2.09 1.99 2.09 3.51 0 2.21-1.79 4-4 4-2.2 0-3.99-1.78-4-3.98 0-.01 0-.01 0-.02z" fill="#4e9bb9"/><path d="m18.09 13.648h2v4.444h-2z" fill="#f69489" transform="matrix(.68 -.734 .734 .68 -5.525 19.092)"/><path d="m38.471 14.361h5.858v2h-5.858z" fill="#f69489" transform="matrix(.731 -.683 .683 .731 .664 32.404)"/><path d="m6.215 19.5h12.57v2h-12.57z" fill="#f69489" transform="matrix(.407 -.913 .913 .407 -11.314 23.566)"/><path d="m30 38c-7.168 0-13-5.832-13-13s5.832-13 13-13 13 5.832 13 13-5.832 13-13 13zm0-24c-6.065 0-11 4.935-11 11s4.935 11 11 11 11-4.935 11-11-4.935-11-11-11z" fill="#68607c"/><circle cx="45" cy="12" fill="#91cbd7" r="3"/><circle cx="16" cy="13" fill="#91cbd7" r="3"/><circle cx="9" cy="28" fill="#91cbd7" r="3"/><g fill="#68607c"><path d="m42.515 29.504h2v7.813h-2z" transform="matrix(.545 -.838 .838 .545 -8.217 51.674)"/><path d="m9 42h2v6h-2z"/><path d="m13 34h2v14h-2z"/><path d="m17 38h2v10h-2z"/><path d="m21 41h2v7h-2z"/><path d="m25 43h2v5h-2z"/><path d="m29 40h2v8h-2z"/><path d="m33 42h2v6h-2z"/><path d="m37 39h2v9h-2z"/><path d="m41 40h2v8h-2z"/><path d="m45 43h2v5h-2z"/><path d="m7 47h42v2h-42z"/></g></svg>