<svg id="Layer_1_1_" enable-background="new 0 0 64 64" height="512" viewBox="0 0 64 64" width="512" xmlns="http://www.w3.org/2000/svg"><path d="m55 32h-4v-2h2v-8h2z" fill="#68607c"/><path d="m37 32h-28v-10h2v8h26z" fill="#68607c"/><ellipse cx="32" cy="41" fill="#ed6571" rx="12" ry="3"/><path d="m44 41v6c0 1.66-5.37 3-12 3s-12-1.34-12-3v-6c0 1.66 5.37 3 12 3s12-1.34 12-3z" fill="#ffe5ca"/><path d="m44 47v6c0 1.66-5.37 3-12 3s-12-1.34-12-3v-6c0 1.66 5.37 3 12 3s12-1.34 12-3z" fill="#ffe5ca"/><path d="m44 53v6c0 1.66-5.37 3-12 3s-12-1.34-12-3v-6c0 1.66 5.37 3 12 3s12-1.34 12-3z" fill="#ffe5ca"/><path d="m31 22h2v19h-2z" fill="#68607c"/><path d="m47 30h2v2h-2z" fill="#68607c"/><path d="m43 30h2v2h-2z" fill="#68607c"/><path d="m39 30h2v2h-2z" fill="#68607c"/><ellipse cx="32" cy="5" fill="#7bc2cc" rx="8" ry="3"/><ellipse cx="53" cy="5" fill="#7bc2cc" rx="8" ry="3"/><ellipse cx="11" cy="5" fill="#7bc2cc" rx="8" ry="3"/><path d="m61 10v5c0 1.66-3.58 3-8 3s-8-1.34-8-3v-5c0 1.66 3.58 3 8 3s8-1.34 8-3z" fill="#ffe5ca"/><path d="m61 15v5c0 1.66-3.58 3-8 3s-8-1.34-8-3v-5c0 1.66 3.58 3 8 3s8-1.34 8-3z" fill="#ffe5ca"/><path d="m61 5v5c0 1.66-3.58 3-8 3s-8-1.34-8-3v-5c0 1.66 3.58 3 8 3s8-1.34 8-3z" fill="#ffe5ca"/><path d="m32 8c4.42 0 8-1.34 8-3v5c0 1.66-3.58 3-8 3s-8-1.34-8-3v-5c0 1.66 3.58 3 8 3z" fill="#ffe5ca"/><path d="m40 15v5c0 1.66-3.58 3-8 3s-8-1.34-8-3v-5c0 1.66 3.58 3 8 3s8-1.34 8-3z" fill="#ffe5ca"/><path d="m40 10v5c0 1.66-3.58 3-8 3s-8-1.34-8-3v-5c0 1.66 3.58 3 8 3s8-1.34 8-3z" fill="#ffe5ca"/><path d="m19 5v5c0 1.66-3.58 3-8 3s-8-1.34-8-3v-5c0 1.66 3.58 3 8 3s8-1.34 8-3z" fill="#ffe5ca"/><path d="m19 10v5c0 1.66-3.58 3-8 3s-8-1.34-8-3v-5c0 1.66 3.58 3 8 3s8-1.34 8-3z" fill="#ffe5ca"/><path d="m19 15v5c0 1.66-3.58 3-8 3s-8-1.34-8-3v-5c0 1.66 3.58 3 8 3s8-1.34 8-3z" fill="#ffe5ca"/><g fill="#fac7a4"><path d="m46.947 11.959c1.467.637 3.631 1.041 6.053 1.041 4.42 0 8-1.34 8-3v-3c0 2.557-6.131 4.659-14.053 4.959z"/><path d="m46.947 16.959c1.467.637 3.631 1.041 6.053 1.041 4.42 0 8-1.34 8-3v-3c0 2.557-6.131 4.659-14.053 4.959z"/><path d="m46.947 21.959c1.467.637 3.631 1.041 6.053 1.041 4.42 0 8-1.34 8-3v-3c0 2.557-6.131 4.659-14.053 4.959z"/><path d="m22.82 48.932c2.149.638 5.342 1.046 8.923 1.065 6.795-.035 12.257-1.359 12.257-2.997v-3c0 2.5-9.182 4.56-21.18 4.932z"/><path d="m22.82 54.932c2.149.638 5.342 1.046 8.923 1.065 6.795-.035 12.257-1.359 12.257-2.997v-3c0 2.5-9.182 4.56-21.18 4.932z"/><path d="m22.82 60.932c2.149.638 5.342 1.046 8.923 1.065 6.795-.035 12.257-1.359 12.257-2.997v-3c0 2.5-9.182 4.56-21.18 4.932z"/><path d="m25.947 11.959c1.467.637 3.631 1.041 6.053 1.041 4.42 0 8-1.34 8-3v-3c0 2.557-6.131 4.659-14.053 4.959z"/><path d="m25.947 16.959c1.467.637 3.631 1.041 6.053 1.041 4.42 0 8-1.34 8-3v-3c0 2.557-6.131 4.659-14.053 4.959z"/><path d="m25.947 21.959c1.467.637 3.631 1.041 6.053 1.041 4.42 0 8-1.34 8-3v-3c0 2.557-6.131 4.659-14.053 4.959z"/><path d="m4.947 11.959c1.467.637 3.631 1.041 6.053 1.041 4.42 0 8-1.34 8-3v-3c0 2.557-6.131 4.659-14.053 4.959z"/><path d="m4.947 16.959c1.467.637 3.631 1.041 6.053 1.041 4.42 0 8-1.34 8-3v-3c0 2.557-6.131 4.659-14.053 4.959z"/><path d="m4.947 21.959c1.467.637 3.631 1.041 6.053 1.041 4.42 0 8-1.34 8-3v-3c0 2.557-6.131 4.659-14.053 4.959z"/></g></svg>