<svg id="Layer_1_1_" enable-background="new 0 0 64 64" height="512" viewBox="0 0 64 64" width="512" xmlns="http://www.w3.org/2000/svg"><path d="m61 56v1c0 2.21-1.79 4-4 4h-50c-2.21 0-4-1.79-4-4v-1h21l1 1h14l1-1z" fill="#68607c"/><path d="m55 40 6 16h-21l-1 1h-14l-1-1h-21l6-16z" fill="#4e9bb9"/><path d="m55 7v33h-46v-33c0-2.21 1.79-4 4-4h38c2.21 0 4 1.79 4 4z" fill="#91cbd7"/><path d="m13 7h38v29h-38z" fill="#ffe5ca"/><g fill="#68607c"><path d="m9 51h4v2h-4z"/><path d="m16 51h4v2h-4z"/><path d="m23 51h18v2h-18z"/><path d="m44 51h4v2h-4z"/><path d="m51 51h4v2h-4z"/><path d="m10 47h6v2h-6z"/><path d="m19 47h4v2h-4z"/><path d="m26 47h4v2h-4z"/><path d="m33 47h4v2h-4z"/><path d="m40 47h4v2h-4z"/><path d="m47 47h7v2h-7z"/><path d="m16 43h2v2h-2z"/><path d="m12 43h2v2h-2z"/><path d="m21 43h4v2h-4z"/><path d="m28 43h4v2h-4z"/><path d="m35 43h4v2h-4z"/><path d="m42 43h4v2h-4z"/><path d="m49 43h4v2h-4z"/><path d="m19.293 17.707-3.707-3.707 3.707-3.707 1.414 1.414-2.293 2.293 2.293 2.293z"/><path d="m30.707 17.707-1.414-1.414 2.293-2.293-2.293-2.293 1.414-1.414 3.707 3.707z"/><path d="m32.293 31.707-3.707-3.707 3.707-3.707 1.414 1.414-2.293 2.293 2.293 2.293z"/><path d="m43.707 31.707-1.414-1.414 2.293-2.293-2.293-2.293 1.414-1.414 3.707 3.707z"/><path d="m34.146 27h6.708v2h-6.708z" transform="matrix(.447 -.894 .894 .447 -4.315 49.019)"/><path d="m26 30h2v2h-2z"/><path d="m22 30h2v2h-2z"/><path d="m18 30h2v2h-2z"/><path d="m41 20h-2v-3h-1v-2h3z"/><path d="m38 11h2v2h-2z"/></g><path d="m60.446 59h-56.892c.693 1.191 1.968 2 3.446 2h50c1.478 0 2.753-.809 3.446-2z" fill="#4b425a"/></svg>