<svg id="Layer_1_1_" enable-background="new 0 0 64 64" height="512" viewBox="0 0 64 64" width="512" xmlns="http://www.w3.org/2000/svg"><path d="m11.2 22.2c3.67-7.8 11.61-13.2 20.8-13.2v14 9l-22.2 5.98h-.01c-.52-1.91-.79-3.91-.79-5.98 0-3.51.79-6.83 2.2-9.8z" fill="#ffd086"/><path d="m18.43 50.57c-4.17-3.05-7.27-7.47-8.63-12.59l22.2-5.98v23c-5.08 0-9.77-1.65-13.57-4.43z" fill="#ed6571"/><path d="m44.98 50.98c-3.69 2.54-8.16 4.02-12.98 4.02v-23h23c0 7.88-3.97 14.84-10.02 18.98z" fill="#91cbd7"/><path d="m60 11v21h-4v-12-9z" fill="#4e9bb9"/><path d="m56 20v12h-1-3v-12z" fill="#91cbd7"/><path d="m52 20v12h-4v-17h4z" fill="#4e9bb9"/><path d="m48 15v17h-4v-16-6h4z" fill="#91cbd7"/><path d="m44 16v16h-4v-12-4z" fill="#4e9bb9"/><path d="m32 23h4v9h-4z" fill="#4e9bb9"/><path d="m40 20v12h-4v-9-3z" fill="#91cbd7"/><g fill="#68607c"><path d="m32 31h30v2h-30z"/><path d="m52 52h10v2h-10z"/><path d="m52 56h10v2h-10z"/><path d="m52 60h10v2h-10z"/><path d="m2 52h10v2h-10z"/><path d="m2 56h10v2h-10z"/><path d="m2 60h10v2h-10z"/><path d="m50 54h-3.414l-9.293-9.293 1.414-1.414 8.707 8.707h2.586z"/><path d="m2 2h12v2h-12z"/><path d="m2 6h12v2h-12z"/><path d="m2 10h12v2h-12z"/><path d="m16.293 28.707-10.293-10.293v-4.414h2v3.586l9.707 9.707z"/><path d="m16.414 54h-2.414v-2h1.586l6.707-6.707 1.414 1.414z"/></g><path d="m36.707 13.707-1.414-1.414 10.645-10.646 6.175 5.146 8.402-4.667.97 1.748-9.598 5.333-5.825-4.854z" fill="#ffd086"/></svg>